<?xml version="1.0" encoding="UTF-8"?>
<svg xmlns="http://www.w3.org/2000/svg" xmlns:xlink="http://www.w3.org/1999/xlink" width="150px" height="53px" viewBox="0 0 150 53" version="1.1">
<g id="surface1">
<path style=" stroke:none;fill-rule:nonzero;fill:rgb(86.274511%,96.470588%,99.607843%);fill-opacity:1;" d="M 54.8125 7.167969 C 54.8125 3.210938 51.65625 0 47.765625 0 C 43.875 0 40.71875 3.210938 40.71875 7.167969 C 40.71875 11.128906 43.875 14.339844 47.765625 14.339844 C 51.65625 14.339844 54.8125 11.128906 54.8125 7.167969 Z M 54.8125 7.167969 "/>
<path style=" stroke:none;fill-rule:nonzero;fill:rgb(86.274511%,96.470588%,99.607843%);fill-opacity:1;" d="M 65.699219 29.238281 C 65.699219 27.769531 64.53125 26.574219 63.089844 26.574219 C 61.648438 26.574219 60.480469 27.769531 60.480469 29.238281 C 60.480469 30.710938 61.648438 31.90625 63.089844 31.90625 C 64.53125 31.90625 65.699219 30.710938 65.699219 29.238281 Z M 65.699219 29.238281 "/>
<path style=" stroke:none;fill-rule:nonzero;fill:rgb(86.274511%,96.470588%,99.607843%);fill-opacity:1;" d="M 14.617188 34.832031 C 14.617188 32.84375 13.03125 31.230469 11.074219 31.230469 C 9.117188 31.230469 7.53125 32.84375 7.53125 34.832031 C 7.53125 36.824219 9.117188 38.4375 11.074219 38.4375 C 13.03125 38.4375 14.617188 36.824219 14.617188 34.832031 Z M 14.617188 34.832031 "/>
<path style=" stroke:none;fill-rule:nonzero;fill:rgb(86.274511%,96.470588%,99.607843%);fill-opacity:1;" d="M 3.503906 27.851562 C 3.503906 26.855469 2.71875 26.050781 1.753906 26.050781 C 0.785156 26.050781 0 26.855469 0 27.851562 C 0 28.847656 0.785156 29.652344 1.753906 29.652344 C 2.71875 29.652344 3.503906 28.847656 3.503906 27.851562 Z M 3.503906 27.851562 "/>
<path style=" stroke:none;fill-rule:nonzero;fill:rgb(0%,30.588236%,88.627452%);fill-opacity:1;" d="M 16.0625 13.0625 L 53.441406 13.0625 C 54.980469 13.0625 56.230469 14.320312 56.230469 15.871094 L 56.230469 44.1875 C 56.230469 45.738281 54.980469 46.996094 53.441406 46.996094 L 16.0625 46.996094 C 14.523438 46.996094 13.273438 45.738281 13.273438 44.1875 L 13.273438 15.871094 C 13.273438 14.320312 14.523438 13.0625 16.0625 13.0625 Z M 16.0625 13.0625 "/>
<path style=" stroke:none;fill-rule:nonzero;fill:rgb(86.274511%,96.470588%,99.607843%);fill-opacity:1;" d="M 17.925781 16.140625 L 51.578125 16.140625 C 52.539062 16.140625 53.320312 16.925781 53.320312 17.894531 L 53.320312 38.40625 C 53.320312 39.378906 52.539062 40.164062 51.578125 40.164062 L 17.925781 40.164062 C 16.964844 40.164062 16.183594 39.378906 16.183594 38.40625 L 16.183594 17.894531 C 16.183594 16.925781 16.964844 16.140625 17.925781 16.140625 Z M 17.925781 16.140625 "/>
<path style=" stroke:none;fill-rule:nonzero;fill:rgb(86.274511%,96.470588%,99.607843%);fill-opacity:1;" d="M 31.097656 43.089844 L 38.332031 43.089844 L 38.332031 44.140625 L 31.097656 44.140625 Z M 31.097656 43.089844 "/>
<path style=" stroke:none;fill-rule:nonzero;fill:rgb(100%,99.215686%,99.215686%);fill-opacity:1;" d="M 20.0625 9.535156 L 49.367188 9.535156 L 49.367188 40.164062 L 20.0625 40.164062 Z M 20.0625 9.535156 "/>
<path style=" stroke:none;fill-rule:nonzero;fill:rgb(0%,30.588236%,88.627452%);fill-opacity:1;" d="M 20.0625 7.730469 L 49.367188 7.730469 L 49.367188 9.535156 L 20.0625 9.535156 Z M 20.0625 7.730469 "/>
<path style=" stroke:none;fill-rule:nonzero;fill:rgb(0%,30.588236%,88.627452%);fill-opacity:1;" d="M 34.15625 16.964844 L 38.765625 16.964844 L 38.765625 17.941406 L 34.15625 17.941406 Z M 34.15625 16.964844 "/>
<path style=" stroke:none;fill-rule:nonzero;fill:rgb(0%,30.588236%,88.627452%);fill-opacity:1;" d="M 38.109375 18.769531 L 43.585938 18.769531 L 43.585938 19.742188 L 38.109375 19.742188 Z M 38.109375 18.769531 "/>
<path style=" stroke:none;fill-rule:nonzero;fill:rgb(0%,30.588236%,88.627452%);fill-opacity:1;" d="M 34.15625 18.769531 L 37.613281 18.769531 L 37.613281 19.742188 L 34.15625 19.742188 Z M 34.15625 18.769531 "/>
<path style=" stroke:none;fill-rule:nonzero;fill:rgb(0%,30.588236%,88.627452%);fill-opacity:1;" d="M 39.226562 16.964844 L 43.550781 16.964844 L 43.550781 17.941406 L 39.226562 17.941406 Z M 39.226562 16.964844 "/>
<path style=" stroke:none;fill-rule:nonzero;fill:rgb(0%,30.588236%,88.627452%);fill-opacity:1;" d="M 34.082031 30.777344 L 38.691406 30.777344 L 38.691406 31.753906 L 34.082031 31.753906 Z M 34.082031 30.777344 "/>
<path style=" stroke:none;fill-rule:nonzero;fill:rgb(0%,30.588236%,88.627452%);fill-opacity:1;" d="M 38 32.582031 L 43.476562 32.582031 L 43.476562 33.558594 L 38 33.558594 Z M 38 32.582031 "/>
<path style=" stroke:none;fill-rule:nonzero;fill:rgb(0%,30.588236%,88.627452%);fill-opacity:1;" d="M 34.082031 32.582031 L 37.539062 32.582031 L 37.539062 33.558594 L 34.082031 33.558594 Z M 34.082031 32.582031 "/>
<path style=" stroke:none;fill-rule:nonzero;fill:rgb(0%,30.588236%,88.627452%);fill-opacity:1;" d="M 39.152344 30.777344 L 43.476562 30.777344 L 43.476562 31.753906 L 39.152344 31.753906 Z M 39.152344 30.777344 "/>
<path style=" stroke:none;fill-rule:nonzero;fill:rgb(0%,30.588236%,88.627452%);fill-opacity:1;" d="M 34.15625 24.171875 L 38.765625 24.171875 L 38.765625 25.148438 L 34.15625 25.148438 Z M 34.15625 24.171875 "/>
<path style=" stroke:none;fill-rule:nonzero;fill:rgb(0%,30.588236%,88.627452%);fill-opacity:1;" d="M 38.074219 25.972656 L 43.550781 25.972656 L 43.550781 26.949219 L 38.074219 26.949219 Z M 38.074219 25.972656 "/>
<path style=" stroke:none;fill-rule:nonzero;fill:rgb(0%,30.588236%,88.627452%);fill-opacity:1;" d="M 34.15625 25.972656 L 37.613281 25.972656 L 37.613281 26.949219 L 34.15625 26.949219 Z M 34.15625 25.972656 "/>
<path style=" stroke:none;fill-rule:nonzero;fill:rgb(0%,30.588236%,88.627452%);fill-opacity:1;" d="M 39.226562 24.171875 L 43.550781 24.171875 L 43.550781 25.148438 L 39.226562 25.148438 Z M 39.226562 24.171875 "/>
<path style=" stroke:none;fill-rule:nonzero;fill:rgb(0%,30.588236%,88.627452%);fill-opacity:1;" d="M 34.15625 24.171875 L 38.765625 24.171875 L 38.765625 25.148438 L 34.15625 25.148438 Z M 34.15625 24.171875 "/>
<path style=" stroke:none;fill-rule:nonzero;fill:rgb(0%,30.588236%,88.627452%);fill-opacity:1;" d="M 38.074219 25.972656 L 43.550781 25.972656 L 43.550781 26.949219 L 38.074219 26.949219 Z M 38.074219 25.972656 "/>
<path style=" stroke:none;fill-rule:nonzero;fill:rgb(0%,30.588236%,88.627452%);fill-opacity:1;" d="M 34.15625 25.972656 L 37.613281 25.972656 L 37.613281 26.949219 L 34.15625 26.949219 Z M 34.15625 25.972656 "/>
<path style=" stroke:none;fill-rule:nonzero;fill:rgb(0%,30.588236%,88.627452%);fill-opacity:1;" d="M 39.226562 24.171875 L 43.550781 24.171875 L 43.550781 25.148438 L 39.226562 25.148438 Z M 39.226562 24.171875 "/>
<path style=" stroke:none;fill-rule:nonzero;fill:rgb(0%,30.588236%,88.627452%);fill-opacity:1;" d="M 34.15625 24.171875 L 38.765625 24.171875 L 38.765625 25.148438 L 34.15625 25.148438 Z M 34.15625 24.171875 "/>
<path style=" stroke:none;fill-rule:nonzero;fill:rgb(0%,30.588236%,88.627452%);fill-opacity:1;" d="M 38.074219 25.972656 L 43.550781 25.972656 L 43.550781 26.949219 L 38.074219 26.949219 Z M 38.074219 25.972656 "/>
<path style=" stroke:none;fill-rule:nonzero;fill:rgb(0%,30.588236%,88.627452%);fill-opacity:1;" d="M 34.15625 25.972656 L 37.613281 25.972656 L 37.613281 26.949219 L 34.15625 26.949219 Z M 34.15625 25.972656 "/>
<path style=" stroke:none;fill-rule:nonzero;fill:rgb(0%,30.588236%,88.627452%);fill-opacity:1;" d="M 39.226562 24.171875 L 43.550781 24.171875 L 43.550781 25.148438 L 39.226562 25.148438 Z M 39.226562 24.171875 "/>
<path style=" stroke:none;fill-rule:nonzero;fill:rgb(0%,30.588236%,88.627452%);fill-opacity:1;" d="M 23.566406 51.875 L 45.9375 51.875 L 45.9375 53 L 23.566406 53 Z M 23.566406 51.875 "/>
<path style=" stroke:none;fill-rule:nonzero;fill:rgb(93.725491%,26.666668%,26.666668%);fill-opacity:1;" d="M 30.582031 23.121094 L 31.246094 23.765625 L 28.027344 26.929688 L 27.363281 26.285156 Z M 30.582031 23.121094 "/>
<path style=" stroke:none;fill-rule:nonzero;fill:rgb(93.725491%,26.666668%,26.666668%);fill-opacity:1;" d="M 28.632812 26.277344 L 27.972656 26.929688 L 26.472656 25.488281 L 27.132812 24.839844 Z M 28.632812 26.277344 "/>
<path style=" stroke:none;fill-rule:nonzero;fill:rgb(0%,30.588236%,88.627452%);fill-opacity:1;" d="M 26.625 16.140625 L 31.097656 16.140625 L 31.097656 20.644531 L 26.625 20.644531 Z M 26.625 16.140625 "/>
<path style=" stroke:none;fill-rule:nonzero;fill:rgb(100%,100%,100%);fill-opacity:1;" d="M 27.742188 17.265625 L 29.980469 17.265625 L 29.980469 19.519531 L 27.742188 19.519531 Z M 27.742188 17.265625 "/>
<path style=" stroke:none;fill-rule:nonzero;fill:rgb(0%,30.588236%,88.627452%);fill-opacity:1;" d="M 26.625 29.652344 L 31.097656 29.652344 L 31.097656 34.15625 L 26.625 34.15625 Z M 26.625 29.652344 "/>
<path style=" stroke:none;fill-rule:nonzero;fill:rgb(100%,100%,100%);fill-opacity:1;" d="M 27.742188 30.777344 L 29.980469 30.777344 L 29.980469 33.03125 L 27.742188 33.03125 Z M 27.742188 30.777344 "/>
<path style=" stroke:none;fill-rule:nonzero;fill:rgb(86.274511%,96.470588%,99.607843%);fill-opacity:1;" d="M 28.84375 46.996094 L 40.890625 46.996094 L 43.476562 51.875 L 25.953125 51.875 Z M 28.84375 46.996094 "/>
<path style=" stroke:none;fill-rule:nonzero;fill:rgb(0%,30.588236%,88.627452%);fill-opacity:1;" d="M 23.183594 5.78125 L 36.207031 5.78125 L 39.003906 7.730469 L 20.0625 7.730469 Z M 23.183594 5.78125 "/>
<path style=" stroke:none;fill-rule:nonzero;fill:rgb(0%,30.588236%,88.627452%);fill-opacity:1;" d="M 76.429688 27.726562 L 76.429688 31.765625 L 84.273438 31.765625 L 84.273438 36.996094 L 76.429688 36.996094 L 76.429688 41.453125 L 85.320312 41.453125 L 85.320312 46.964844 L 69.59375 46.964844 L 69.59375 22.21875 L 85.320312 22.21875 L 85.320312 27.726562 Z M 117.394531 22.21875 L 117.394531 46.964844 L 110.558594 46.964844 L 110.558594 33.308594 L 105.921875 46.964844 L 100.203125 46.964844 L 95.53125 33.203125 L 95.53125 46.964844 L 88.699219 46.964844 L 88.699219 22.21875 L 96.960938 22.21875 L 103.132812 38.292969 L 109.164062 22.21875 Z M 130.558594 47.207031 C 127.699219 47.207031 125.351562 46.53125 123.515625 45.171875 C 121.679688 43.792969 120.691406 41.828125 120.550781 39.277344 L 127.839844 39.277344 C 127.910156 40.140625 128.164062 40.773438 128.605469 41.171875 C 129.046875 41.570312 129.617188 41.769531 130.316406 41.769531 C 130.941406 41.769531 131.453125 41.617188 131.847656 41.3125 C 132.265625 40.984375 132.476562 40.539062 132.476562 39.976562 C 132.476562 39.253906 132.140625 38.691406 131.464844 38.292969 C 130.789062 37.894531 129.699219 37.449219 128.1875 36.960938 C 126.582031 36.421875 125.28125 35.90625 124.28125 35.414062 C 123.304688 34.902344 122.445312 34.164062 121.703125 33.203125 C 120.980469 32.222656 120.621094 30.945312 120.621094 29.378906 C 120.621094 27.785156 121.015625 26.429688 121.808594 25.304688 C 122.597656 24.160156 123.691406 23.292969 125.085938 22.710938 C 126.480469 22.125 128.058594 21.832031 129.828125 21.832031 C 132.683594 21.832031 134.964844 22.511719 136.660156 23.867188 C 138.378906 25.203125 139.296875 27.085938 139.414062 29.519531 L 131.988281 29.519531 C 131.964844 28.769531 131.730469 28.207031 131.289062 27.832031 C 130.871094 27.460938 130.328125 27.273438 129.652344 27.273438 C 129.140625 27.273438 128.722656 27.425781 128.398438 27.726562 C 128.070312 28.03125 127.910156 28.464844 127.910156 29.027344 C 127.910156 29.496094 128.082031 29.90625 128.433594 30.253906 C 128.804688 30.582031 129.257812 30.875 129.792969 31.132812 C 130.328125 31.367188 131.117188 31.671875 132.164062 32.046875 C 133.71875 32.582031 135 33.121094 135.996094 33.660156 C 137.019531 34.175781 137.894531 34.914062 138.613281 35.871094 C 139.355469 36.808594 139.730469 38 139.730469 39.453125 C 139.730469 40.925781 139.355469 42.246094 138.613281 43.417969 C 137.894531 44.585938 136.835938 45.511719 135.441406 46.191406 C 134.066406 46.871094 132.441406 47.207031 130.558594 47.207031 Z M 130.558594 47.207031 "/>
</g>
</svg>
