<svg width="100" height="35" viewBox="0 0 1863 632" fill="none" xmlns="http://www.w3.org/2000/svg">
<rect y="90.7909" width="585.239" height="459.25" rx="40" fill="white"/>
<rect x="68.645" y="139.5" width="452" height="331" fill="#FFFDFD" stroke="#3C50E0" stroke-width="5"/>
<rect x="285" y="217" width="62.8324" height="13.2085" fill="#3C50E0"/>
<rect x="338" y="194" width="74.6135" height="13.2085" fill="#3C50E0"/>
<rect x="284.491" y="194" width="47.1243" height="13.2085" fill="#3C50E0"/>
<rect x="354" y="218" width="58.9054" height="13.2085" fill="#3C50E0"/>
<rect x="283.781" y="396.128" width="62.8324" height="13.2085" fill="#3C50E0"/>
<rect x="336.882" y="375.961" width="74.6135" height="13.2085" fill="#3C50E0"/>
<rect x="283.475" y="375.961" width="47.1243" height="13.2085" fill="#3C50E0"/>
<rect x="352.896" y="396.128" width="58.9054" height="13.2085" fill="#3C50E0"/>
<rect x="285" y="285.716" width="62.8324" height="13.2085" fill="#3C50E0"/>
<rect x="338.205" y="310.101" width="74.6135" height="13.2085" fill="#3C50E0"/>
<rect x="284.797" y="310.101" width="47.1243" height="13.2085" fill="#3C50E0"/>
<rect x="353.913" y="285.716" width="58.9054" height="13.2085" fill="#3C50E0"/>
<rect x="140.213" y="616.083" width="304.812" height="15.2406" fill="white"/>
<rect width="12.5747" height="61.2986" transform="matrix(0.722068 0.691822 -0.715303 0.698814 236.092 271.492)" fill="#EF4444"/>
<rect width="12.5696" height="28.2182" transform="matrix(-0.713494 0.700661 -0.723853 -0.689955 209.539 314.198)" fill="#EF4444"/>
<rect x="182.177" y="177" width="60.9624" height="60.9624" fill="#3C50E0"/>
<rect x="197.417" y="192.241" width="30.4812" height="30.4812" fill="white"/>
<rect x="182.177" y="359.887" width="60.9624" height="60.9624" fill="#3C50E0" fill-opacity="0.933333"/>
<rect x="197.417" y="375.128" width="30.4812" height="30.4812" fill="white"/>
<path d="M212.102 550.041H376.256L411.496 616.083H172.727L212.102 550.041Z" fill="white"/>
<path d="M866.145 276V333.5H978.645V408H866.145V471.5H993.645V550H768.145V197.5H993.645V276H866.145ZM1453.57 197.5V550H1355.57V355.5L1289.07 550H1207.07L1140.07 354V550H1042.07V197.5H1160.57L1249.07 426.5L1335.57 197.5H1453.57ZM1642.36 553.5C1601.36 553.5 1567.69 543.833 1541.36 524.5C1515.02 504.833 1500.86 476.833 1498.86 440.5H1603.36C1604.36 452.833 1608.02 461.833 1614.36 467.5C1620.69 473.167 1628.86 476 1638.86 476C1647.86 476 1655.19 473.833 1660.86 469.5C1666.86 464.833 1669.86 458.5 1669.86 450.5C1669.86 440.167 1665.02 432.167 1655.36 426.5C1645.69 420.833 1630.02 414.5 1608.36 407.5C1585.36 399.833 1566.69 392.5 1552.36 385.5C1538.36 378.167 1526.02 367.667 1515.36 354C1505.02 340 1499.86 321.833 1499.86 299.5C1499.86 276.833 1505.52 257.5 1516.86 241.5C1528.19 225.167 1543.86 212.833 1563.86 204.5C1583.86 196.167 1606.52 192 1631.86 192C1672.86 192 1705.52 201.667 1729.86 221C1754.52 240 1767.69 266.833 1769.36 301.5H1662.86C1662.52 290.833 1659.19 282.833 1652.86 277.5C1646.86 272.167 1639.02 269.5 1629.36 269.5C1622.02 269.5 1616.02 271.667 1611.36 276C1606.69 280.333 1604.36 286.5 1604.36 294.5C1604.36 301.167 1606.86 307 1611.86 312C1617.19 316.667 1623.69 320.833 1631.36 324.5C1639.02 327.833 1650.36 332.167 1665.36 337.5C1687.69 345.167 1706.02 352.833 1720.36 360.5C1735.02 367.833 1747.52 378.333 1757.86 392C1768.52 405.333 1773.86 422.333 1773.86 443C1773.86 464 1768.52 482.833 1757.86 499.5C1747.52 516.167 1732.36 529.333 1712.36 539C1692.69 548.667 1669.36 553.5 1642.36 553.5Z" fill="#F8F8F8"/>
</svg>
