<?xml version="1.0" encoding="UTF-8"?>
<svg xmlns="http://www.w3.org/2000/svg" xmlns:xlink="http://www.w3.org/1999/xlink" width="120px" height="42px" viewBox="0 0 119 42" version="1.1">
<g id="surface1">
<path style=" stroke:none;fill-rule:nonzero;fill:rgb(86.274511%,96.470588%,99.607843%);fill-opacity:1;" d="M 43.484375 5.679688 C 43.484375 2.542969 40.980469 0 37.894531 0 C 34.804688 0 32.304688 2.542969 32.304688 5.679688 C 32.304688 8.820312 34.804688 11.363281 37.894531 11.363281 C 40.980469 11.363281 43.484375 8.820312 43.484375 5.679688 Z M 43.484375 5.679688 "/>
<path style=" stroke:none;fill-rule:nonzero;fill:rgb(86.274511%,96.470588%,99.607843%);fill-opacity:1;" d="M 52.121094 23.171875 C 52.121094 22.003906 51.195312 21.058594 50.050781 21.058594 C 48.90625 21.058594 47.980469 22.003906 47.980469 23.171875 C 47.980469 24.335938 48.90625 25.285156 50.050781 25.285156 C 51.195312 25.285156 52.121094 24.335938 52.121094 23.171875 Z M 52.121094 23.171875 "/>
<path style=" stroke:none;fill-rule:nonzero;fill:rgb(86.274511%,96.470588%,99.607843%);fill-opacity:1;" d="M 11.597656 27.601562 C 11.597656 26.027344 10.335938 24.746094 8.785156 24.746094 C 7.234375 24.746094 5.976562 26.027344 5.976562 27.601562 C 5.976562 29.179688 7.234375 30.457031 8.785156 30.457031 C 10.335938 30.457031 11.597656 29.179688 11.597656 27.601562 Z M 11.597656 27.601562 "/>
<path style=" stroke:none;fill-rule:nonzero;fill:rgb(86.274511%,96.470588%,99.607843%);fill-opacity:1;" d="M 2.78125 22.070312 C 2.78125 21.28125 2.15625 20.644531 1.390625 20.644531 C 0.621094 20.644531 0 21.28125 0 22.070312 C 0 22.859375 0.621094 23.5 1.390625 23.5 C 2.15625 23.5 2.78125 22.859375 2.78125 22.070312 Z M 2.78125 22.070312 "/>
<path style=" stroke:none;fill-rule:nonzero;fill:rgb(0%,30.588236%,88.627452%);fill-opacity:1;" d="M 12.742188 10.351562 L 42.394531 10.351562 C 43.617188 10.351562 44.609375 11.347656 44.609375 12.578125 L 44.609375 35.015625 C 44.609375 36.246094 43.617188 37.242188 42.394531 37.242188 L 12.742188 37.242188 C 11.523438 37.242188 10.53125 36.246094 10.53125 35.015625 L 10.53125 12.578125 C 10.53125 11.347656 11.523438 10.351562 12.742188 10.351562 Z M 12.742188 10.351562 "/>
<path style=" stroke:none;fill-rule:nonzero;fill:rgb(86.274511%,96.470588%,99.607843%);fill-opacity:1;" d="M 14.222656 12.789062 L 40.917969 12.789062 C 41.683594 12.789062 42.300781 13.414062 42.300781 14.179688 L 42.300781 30.4375 C 42.300781 31.203125 41.683594 31.828125 40.917969 31.828125 L 14.222656 31.828125 C 13.457031 31.828125 12.839844 31.203125 12.839844 30.4375 L 12.839844 14.179688 C 12.839844 13.414062 13.457031 12.789062 14.222656 12.789062 Z M 14.222656 12.789062 "/>
<path style=" stroke:none;fill-rule:nonzero;fill:rgb(86.274511%,96.470588%,99.607843%);fill-opacity:1;" d="M 24.671875 34.148438 L 30.410156 34.148438 L 30.410156 34.980469 L 24.671875 34.980469 Z M 24.671875 34.148438 "/>
<path style=" stroke:none;fill-rule:nonzero;fill:rgb(100%,99.215686%,99.215686%);fill-opacity:1;" d="M 15.914062 7.554688 L 39.164062 7.554688 L 39.164062 31.828125 L 15.914062 31.828125 Z M 15.914062 7.554688 "/>
<path style=" stroke:none;fill-rule:nonzero;fill:rgb(0%,30.588236%,88.627452%);fill-opacity:1;" d="M 15.914062 6.128906 L 39.164062 6.128906 L 39.164062 7.554688 L 15.914062 7.554688 Z M 15.914062 6.128906 "/>
<path style=" stroke:none;fill-rule:nonzero;fill:rgb(0%,30.588236%,88.627452%);fill-opacity:1;" d="M 27.097656 13.445312 L 30.753906 13.445312 L 30.753906 14.21875 L 27.097656 14.21875 Z M 27.097656 13.445312 "/>
<path style=" stroke:none;fill-rule:nonzero;fill:rgb(0%,30.588236%,88.627452%);fill-opacity:1;" d="M 30.230469 14.871094 L 34.578125 14.871094 L 34.578125 15.644531 L 30.230469 15.644531 Z M 30.230469 14.871094 "/>
<path style=" stroke:none;fill-rule:nonzero;fill:rgb(0%,30.588236%,88.627452%);fill-opacity:1;" d="M 27.097656 14.871094 L 29.839844 14.871094 L 29.839844 15.644531 L 27.097656 15.644531 Z M 27.097656 14.871094 "/>
<path style=" stroke:none;fill-rule:nonzero;fill:rgb(0%,30.588236%,88.627452%);fill-opacity:1;" d="M 31.121094 13.445312 L 34.550781 13.445312 L 34.550781 14.21875 L 31.121094 14.21875 Z M 31.121094 13.445312 "/>
<path style=" stroke:none;fill-rule:nonzero;fill:rgb(0%,30.588236%,88.627452%);fill-opacity:1;" d="M 27.039062 24.390625 L 30.695312 24.390625 L 30.695312 25.164062 L 27.039062 25.164062 Z M 27.039062 24.390625 "/>
<path style=" stroke:none;fill-rule:nonzero;fill:rgb(0%,30.588236%,88.627452%);fill-opacity:1;" d="M 30.148438 25.820312 L 34.492188 25.820312 L 34.492188 26.59375 L 30.148438 26.59375 Z M 30.148438 25.820312 "/>
<path style=" stroke:none;fill-rule:nonzero;fill:rgb(0%,30.588236%,88.627452%);fill-opacity:1;" d="M 27.039062 25.820312 L 29.78125 25.820312 L 29.78125 26.59375 L 27.039062 26.59375 Z M 27.039062 25.820312 "/>
<path style=" stroke:none;fill-rule:nonzero;fill:rgb(0%,30.588236%,88.627452%);fill-opacity:1;" d="M 31.0625 24.390625 L 34.492188 24.390625 L 34.492188 25.164062 L 31.0625 25.164062 Z M 31.0625 24.390625 "/>
<path style=" stroke:none;fill-rule:nonzero;fill:rgb(0%,30.588236%,88.627452%);fill-opacity:1;" d="M 27.097656 19.15625 L 30.753906 19.15625 L 30.753906 19.929688 L 27.097656 19.929688 Z M 27.097656 19.15625 "/>
<path style=" stroke:none;fill-rule:nonzero;fill:rgb(0%,30.588236%,88.627452%);fill-opacity:1;" d="M 30.207031 20.582031 L 34.550781 20.582031 L 34.550781 21.355469 L 30.207031 21.355469 Z M 30.207031 20.582031 "/>
<path style=" stroke:none;fill-rule:nonzero;fill:rgb(0%,30.588236%,88.627452%);fill-opacity:1;" d="M 27.097656 20.582031 L 29.839844 20.582031 L 29.839844 21.355469 L 27.097656 21.355469 Z M 27.097656 20.582031 "/>
<path style=" stroke:none;fill-rule:nonzero;fill:rgb(0%,30.588236%,88.627452%);fill-opacity:1;" d="M 31.121094 19.15625 L 34.550781 19.15625 L 34.550781 19.929688 L 31.121094 19.929688 Z M 31.121094 19.15625 "/>
<path style=" stroke:none;fill-rule:nonzero;fill:rgb(0%,30.588236%,88.627452%);fill-opacity:1;" d="M 27.097656 19.15625 L 30.753906 19.15625 L 30.753906 19.929688 L 27.097656 19.929688 Z M 27.097656 19.15625 "/>
<path style=" stroke:none;fill-rule:nonzero;fill:rgb(0%,30.588236%,88.627452%);fill-opacity:1;" d="M 30.207031 20.582031 L 34.550781 20.582031 L 34.550781 21.355469 L 30.207031 21.355469 Z M 30.207031 20.582031 "/>
<path style=" stroke:none;fill-rule:nonzero;fill:rgb(0%,30.588236%,88.627452%);fill-opacity:1;" d="M 27.097656 20.582031 L 29.839844 20.582031 L 29.839844 21.355469 L 27.097656 21.355469 Z M 27.097656 20.582031 "/>
<path style=" stroke:none;fill-rule:nonzero;fill:rgb(0%,30.588236%,88.627452%);fill-opacity:1;" d="M 31.121094 19.15625 L 34.550781 19.15625 L 34.550781 19.929688 L 31.121094 19.929688 Z M 31.121094 19.15625 "/>
<path style=" stroke:none;fill-rule:nonzero;fill:rgb(0%,30.588236%,88.627452%);fill-opacity:1;" d="M 27.097656 19.15625 L 30.753906 19.15625 L 30.753906 19.929688 L 27.097656 19.929688 Z M 27.097656 19.15625 "/>
<path style=" stroke:none;fill-rule:nonzero;fill:rgb(0%,30.588236%,88.627452%);fill-opacity:1;" d="M 30.207031 20.582031 L 34.550781 20.582031 L 34.550781 21.355469 L 30.207031 21.355469 Z M 30.207031 20.582031 "/>
<path style=" stroke:none;fill-rule:nonzero;fill:rgb(0%,30.588236%,88.627452%);fill-opacity:1;" d="M 27.097656 20.582031 L 29.839844 20.582031 L 29.839844 21.355469 L 27.097656 21.355469 Z M 27.097656 20.582031 "/>
<path style=" stroke:none;fill-rule:nonzero;fill:rgb(0%,30.588236%,88.627452%);fill-opacity:1;" d="M 31.121094 19.15625 L 34.550781 19.15625 L 34.550781 19.929688 L 31.121094 19.929688 Z M 31.121094 19.15625 "/>
<path style=" stroke:none;fill-rule:nonzero;fill:rgb(0%,30.588236%,88.627452%);fill-opacity:1;" d="M 18.695312 41.109375 L 36.445312 41.109375 L 36.445312 42 L 18.695312 42 Z M 18.695312 41.109375 "/>
<path style=" stroke:none;fill-rule:nonzero;fill:rgb(93.725491%,26.666668%,26.666668%);fill-opacity:1;" d="M 24.261719 18.324219 L 24.789062 18.832031 L 22.234375 21.339844 L 21.707031 20.832031 Z M 24.261719 18.324219 "/>
<path style=" stroke:none;fill-rule:nonzero;fill:rgb(93.725491%,26.666668%,26.666668%);fill-opacity:1;" d="M 22.714844 20.824219 L 22.191406 21.339844 L 21.003906 20.199219 L 21.523438 19.683594 Z M 22.714844 20.824219 "/>
<path style=" stroke:none;fill-rule:nonzero;fill:rgb(0%,30.588236%,88.627452%);fill-opacity:1;" d="M 21.121094 12.789062 L 24.671875 12.789062 L 24.671875 16.359375 L 21.121094 16.359375 Z M 21.121094 12.789062 "/>
<path style=" stroke:none;fill-rule:nonzero;fill:rgb(100%,100%,100%);fill-opacity:1;" d="M 22.007812 13.683594 L 23.785156 13.683594 L 23.785156 15.46875 L 22.007812 15.46875 Z M 22.007812 13.683594 "/>
<path style=" stroke:none;fill-rule:nonzero;fill:rgb(0%,30.588236%,88.627452%);fill-opacity:1;" d="M 21.121094 23.5 L 24.671875 23.5 L 24.671875 27.066406 L 21.121094 27.066406 Z M 21.121094 23.5 "/>
<path style=" stroke:none;fill-rule:nonzero;fill:rgb(100%,100%,100%);fill-opacity:1;" d="M 22.007812 24.390625 L 23.785156 24.390625 L 23.785156 26.175781 L 22.007812 26.175781 Z M 22.007812 24.390625 "/>
<path style=" stroke:none;fill-rule:nonzero;fill:rgb(86.274511%,96.470588%,99.607843%);fill-opacity:1;" d="M 22.882812 37.242188 L 32.441406 37.242188 L 34.492188 41.109375 L 20.589844 41.109375 Z M 22.882812 37.242188 "/>
<path style=" stroke:none;fill-rule:nonzero;fill:rgb(0%,30.588236%,88.627452%);fill-opacity:1;" d="M 18.394531 4.582031 L 28.722656 4.582031 L 30.941406 6.128906 L 15.914062 6.128906 Z M 18.394531 4.582031 "/>
<path style=" stroke:none;fill-rule:nonzero;fill:rgb(0%,30.588236%,88.627452%);fill-opacity:1;" d="M 60.632812 21.972656 L 60.632812 25.171875 L 66.859375 25.171875 L 66.859375 29.316406 L 60.632812 29.316406 L 60.632812 32.847656 L 67.6875 32.847656 L 67.6875 37.214844 L 55.210938 37.214844 L 55.210938 17.605469 L 67.6875 17.605469 L 67.6875 21.972656 Z M 93.132812 17.605469 L 93.132812 37.214844 L 87.710938 37.214844 L 87.710938 26.394531 L 84.03125 37.214844 L 79.496094 37.214844 L 75.789062 26.3125 L 75.789062 37.214844 L 70.367188 37.214844 L 70.367188 17.605469 L 76.921875 17.605469 L 81.820312 30.34375 L 86.605469 17.605469 Z M 103.578125 37.410156 C 101.308594 37.410156 99.445312 36.871094 97.988281 35.796875 C 96.53125 34.703125 95.75 33.144531 95.636719 31.125 L 101.417969 31.125 C 101.472656 31.8125 101.675781 32.3125 102.027344 32.625 C 102.378906 32.941406 102.828125 33.097656 103.382812 33.097656 C 103.878906 33.097656 104.285156 32.980469 104.601562 32.738281 C 104.933594 32.476562 105.097656 32.125 105.097656 31.679688 C 105.097656 31.105469 104.832031 30.660156 104.296875 30.34375 C 103.761719 30.03125 102.894531 29.679688 101.695312 29.289062 C 100.421875 28.863281 99.390625 28.453125 98.597656 28.066406 C 97.824219 27.65625 97.140625 27.074219 96.550781 26.3125 C 95.980469 25.535156 95.691406 24.523438 95.691406 23.28125 C 95.691406 22.019531 96.007812 20.945312 96.632812 20.054688 C 97.261719 19.144531 98.128906 18.460938 99.234375 17.996094 C 100.339844 17.53125 101.59375 17.300781 102.996094 17.300781 C 105.265625 17.300781 107.070312 17.839844 108.417969 18.914062 C 109.78125 19.972656 110.511719 21.464844 110.601562 23.390625 L 104.710938 23.390625 C 104.691406 22.796875 104.507812 22.355469 104.15625 22.058594 C 103.824219 21.761719 103.390625 21.613281 102.855469 21.613281 C 102.453125 21.613281 102.121094 21.734375 101.863281 21.972656 C 101.601562 22.214844 101.472656 22.558594 101.472656 23.003906 C 101.472656 23.375 101.613281 23.699219 101.890625 23.976562 C 102.183594 24.234375 102.542969 24.46875 102.96875 24.671875 C 103.390625 24.855469 104.019531 25.097656 104.847656 25.394531 C 106.085938 25.820312 107.097656 26.246094 107.890625 26.675781 C 108.703125 27.082031 109.394531 27.667969 109.964844 28.425781 C 110.554688 29.167969 110.851562 30.113281 110.851562 31.261719 C 110.851562 32.433594 110.554688 33.480469 109.964844 34.40625 C 109.394531 35.332031 108.554688 36.066406 107.449219 36.605469 C 106.359375 37.140625 105.070312 37.410156 103.578125 37.410156 Z M 103.578125 37.410156 "/>
</g>
</svg>
